#!OML:ASF F:\VICON\USERDATA\INSTALL\rory3\rory3.ASF
:FULLY-SPECIFIED
:DEGREES
1541
root 0.32667 16.2959 -0.235546 6.71432 -1.86732 -0.444284
lowerback 9.73048 -0.303409 -1.33016
upperback -2.68681 -0.592457 -0.176082
thorax -8.30843 -0.225419 0.662
lowerneck -14.1497 -3.02369 -9.35651
upperneck 26.3422 -3.69233 6.49878
head 11.1604 -1.8392 3.46447
rclavicle 1.62506e-014 -5.96354e-015
rhumerus 29.2167 -49.1886 -26.0873
rradius 18.2135
rwrist 41.711
rhand -5.14459 8.57594
rfingers 7.12502
rthumb 20.6545 -20.3451
lclavicle 1.62506e-014 -5.96354e-015
lhumerus 30.9695 40.3913 25.6362
lradius 19.2279
lwrist -12.6507
lhand -11.9272 20.4764
lfingers 7.12502
lthumb 14.1271 49.9762
rfemur -7.2986 13.1492 15.5886
rtibia 11.6318
rfoot -8.2951 -13.3935
rtoes -1.63748
lfemur -0.754133 -9.09315 -15.9675
ltibia -5.56597e-015
lfoot -3.09302 10.3822
ltoes -8.75225
1542
root 0.329791 16.2968 -0.231015 6.72883 -1.82657 -0.44849
lowerback 9.66219 -0.33259 -1.32713
upperback -2.69484 -0.62933 -0.166871
thorax -8.27661 -0.243482 0.675617
lowerneck -14.0905 -3.05409 -9.31949
upperneck 26.5626 -3.75445 6.47502
head 11.2367 -1.87027 3.44604
rclavicle -1.57288e-014 1.41137e-014
rhumerus 29.1694 -49.1879 -26.0016
rradius 18.2314
rwrist 41.7613
rhand -5.10079 8.63818
rfingers 7.12502
rthumb 20.6966 -20.2782
lclavicle -1.57288e-014 1.41137e-014
lhumerus 30.6651 40.1689 25.2046
lradius 19.2825
lwrist -12.3617
lhand -11.8376 20.4829
lfingers 7.12502
lthumb 14.2135 49.9766
rfemur -7.27525 13.1146 15.591
rtibia 11.6239
rfoot -8.3253 -13.4102
rtoes -1.9166
lfemur -0.755324 -9.13528 -15.9729
ltibia -3.18055e-015
lfoot -3.13106 10.4064
ltoes -8.7888
1543
root 0.332155 16.2966 -0.227384 6.72339 -1.76734 -0.459834
lowerback 9.63228 -0.367715 -1.31759
upperback -2.70345 -0.673111 -0.146821
thorax -8.26747 -0.264738 0.698498
lowerneck -13.9767 -3.10976 -9.37686
upperneck 26.7276 -3.82139 6.41934
head 11.2839 -1.91709 3.42999
rclavicle 1.71949e-014 -5.1684e-015
rhumerus 29.2654 -49.2918 -26.0753
rradius 18.2291
rwrist 41.8784
rhand -5.04629 8.73446
rfingers 7.12502
rthumb 20.7489 -20.1763
lclavicle 1.71949e-014 -5.1684e-015
lhumerus 30.2479 39.8294 24.6159
lradius 19.3161
lwrist -11.9292
lhand -11.667 20.4163
lfingers 7.12502
lthumb 14.3779 49.8984
rfemur -7.23481 13.0178 15.6094
rtibia 11.6136
rfoot -8.34739 -13.4026
rtoes -2.03455
lfemur -0.748423 -9.1966 -15.9767
ltibia -4.77083e-015
lfoot -3.08861 10.4353
ltoes -9.26566
1544
root 0.33463 16.2966 -0.224142 6.76 -1.70642 -0.440975
lowerback 9.55636 -0.403618 -1.33507
upperback -2.7253 -0.721509 -0.135726
thorax -8.24562 -0.287197 0.727422
lowerneck -13.8158 -3.13564 -9.2908
upperneck 26.8627 -3.86317 6.28128
head 11.3027 -1.94822 3.36149
rclavicle -7.25564e-015 -8.94531e-015
rhumerus 28.8084 -48.8017 -25.4757
rradius 18.3277
rwrist 41.2074
rhand -5.09183 8.41643
rfingers 7.12502
rthumb 20.7052 -20.4991
lclavicle -7.25564e-015 -8.94531e-015
lhumerus 29.9766 39.7129 24.2782
lradius 19.3704
lwrist -11.7129
lhand -11.7167 20.4827
lfingers 7.12502
lthumb 14.33 49.9681
rfemur -7.26045 12.9227 15.5822
rtibia 11.6195
rfoot -8.36086 -13.3895
rtoes -1.96583
lfemur -0.79076 -9.25946 -15.9941
ltibia 3.97569e-015
lfoot -3.08916 10.4499
ltoes -9.18104
1545
root 0.337755 16.2962 -0.219909 6.75556 -1.66415 -0.389135
lowerback 9.50431 -0.432477 -1.37567
upperback -2.71794 -0.765076 -0.145016
thorax -8.20619 -0.306991 0.746986
lowerneck -13.7579 -3.18981 -9.26206
upperneck 26.9728 -3.93183 6.18691
head 11.3374 -1.99011 3.31426
rclavicle -1.39646e-014 1.98785e-015
rhumerus 28.9476 -48.9532 -25.6056
rradius 18.3352
rwrist 41.2708
rhand -5.04391 8.27052
rfingers 7.12502
rthumb 20.7512 -20.6399
lclavicle -1.39646e-014 1.98785e-015
lhumerus 29.7235 39.6175 23.9574
lradius 19.452
lwrist -11.4741
lhand -11.8424 20.5735
lfingers 7.12502
lthumb 14.2088 50.0675
rfemur -7.22605 12.9084 15.5224
rtibia 11.6056
rfoot -8.40422 -13.4374
rtoes -1.8079
lfemur -0.771473 -9.3113 -16.0633
ltibia 3.18055e-015
lfoot -3.12933 10.485
ltoes -9.1051
1546
root 0.340364 16.2962 -0.21707 6.73613 -1.60847 -0.400492
lowerback 9.49405 -0.449442 -1.35194
upperback -2.72172 -0.783909 -0.135811
thorax -8.20404 -0.317103 0.746357
lowerneck -13.6641 -3.27295 -9.3689
upperneck 27.0411 -4.03374 6.18151
head 11.3575 -2.05027 3.31813
rclavicle 1.59028e-015 1.19271e-014
rhumerus 28.8386 -48.9271 -25.4417
rradius 18.347
rwrist 41.1365
rhand -5.02284 8.31949
rfingers 7.12502
rthumb 20.7715 -20.5888
lclavicle 1.59028e-015 1.19271e-014
lhumerus 29.5856 39.5823 23.7732
lradius 19.5116
lwrist -11.2823
lhand -11.7525 20.5529
lfingers 7.12502
lthumb 14.2954 50.0408
rfemur -7.17274 12.9393 15.5376
rtibia 11.5857
rfoot -8.44305 -13.5322
rtoes -1.5985
lfemur -0.741924 -9.36945 -16.061
ltibia -5.56597e-015
lfoot -3.15194 10.4708
ltoes -9.09724
1547
root 0.343944 16.2961 -0.21351 6.74241 -1.58582 -0.430598
lowerback 9.43136 -0.458945 -1.30478
upperback -2.72574 -0.788846 -0.125306
thorax -8.17228 -0.321868 0.73102
lowerneck -13.4867 -3.29036 -9.21564
upperneck 27.0772 -4.07595 6.03708
head 11.3328 -2.07437 3.23358
rclavicle 4.34841e-015 -5.96354e-015
rhumerus 28.5892 -48.7646 -25.1292
rradius 18.3937
rwrist 40.7824
rhand -5.01957 8.3264
rfingers 7.12502
rthumb 20.7746 -20.5815
lclavicle 4.34841e-015 -5.96354e-015
lhumerus 29.6184 39.7436 23.8176
lradius 19.5192
lwrist -11.3178
lhand -11.7081 20.5832
lfingers 7.12502
lthumb 14.3383 50.0681
rfemur -7.13643 12.9464 15.5597
rtibia 11.5422
rfoot -8.44601 -13.5564
rtoes -1.42886
lfemur -0.741456 -9.39102 -16.0413
ltibia 5.56597e-015
lfoot -3.12015 10.4511
ltoes -9.10096
1548
root 0.345288 16.2949 -0.210566 6.74552 -1.62217 -0.434374
lowerback 9.37453 -0.452695 -1.3447
upperback -2.72959 -0.783132 -0.106227
thorax -8.14284 -0.316786 0.772103
lowerneck -13.3505 -3.33556 -9.23903
upperneck 27.0967 -4.1368 5.9946
head 11.3185 -2.11198 3.21436
rclavicle -9.54166e-015 1.98785e-016
rhumerus 28.7508 -48.9651 -25.3067
rradius 18.3918
rwrist 40.8912
rhand -4.99403 8.34673
rfingers 7.12502
rthumb 20.7992 -20.5585
lclavicle -9.54166e-015 1.98785e-016
lhumerus 29.4447 39.6821 23.6098
lradius 19.5802
lwrist -11.129
lhand -11.609 20.6648
lfingers 7.12502
lthumb 14.4338 50.1429
rfemur -7.10821 13.1174 15.5556
rtibia 11.4898
rfoot -8.46738 -13.6867
rtoes -1.24243
lfemur -0.734028 -9.35652 -16.0432
ltibia -4.77083e-015
lfoot -3.11526 10.425
ltoes -9.057
1549
root 0.346127 16.2943 -0.206501 6.71879 -1.64158 -0.44626
lowerback 9.34525 -0.454051 -1.36023
upperback -2.74566 -0.786128 -0.100325
thorax -8.14285 -0.317238 0.787336
lowerneck -13.2673 -3.40977 -9.41074
upperneck 27.1972 -4.23583 6.07755
head 11.3562 -2.16733 3.26355
rclavicle -1.4238e-014 1.09332e-014
rhumerus 29.1117 -49.3527 -25.7533
rradius 18.3496
rwrist 41.3784
rhand -4.90946 8.40168
rfingers 7.12502
rthumb 20.8804 -20.4946
lclavicle -1.4238e-014 1.09332e-014
lhumerus 29.081 39.3035 23.0977
lradius 19.6568
lwrist -10.6501
lhand -11.6197 20.7312
lfingers 7.12502
lthumb 14.4234 50.21
rfemur -7.04169 13.2762 15.5739
rtibia 11.4632
rfoot -8.56872 -13.8005
rtoes -1.17116
lfemur -0.684657 -9.34008 -16.0414
ltibia 5.56597e-015
lfoot -3.12382 10.3969
ltoes -9.09975
1550
root 0.349022 16.294 -0.202297 6.70783 -1.6303 -0.442357
lowerback 9.31165 -0.47284 -1.35409
upperback -2.77041 -0.809954 -0.0969065
thorax -8.1495 -0.328907 0.791106
lowerneck -13.1898 -3.40229 -9.23809
upperneck 27.3682 -4.24356 5.93595
head 11.3991 -2.1734 3.18395
rclavicle 3.80176e-015 8.94531e-015
rhumerus 29.5151 -49.7435 -26.2391
rradius 18.2951
rwrist 41.9711
rhand -4.84136 8.57352
rfingers 7.12502
rthumb 20.9458 -20.3156
lclavicle 3.80176e-015 8.94531e-015
lhumerus 28.8228 39.1275 22.7624
lradius 19.7334
lwrist -10.4879
lhand -11.4656 20.7733
lfingers 7.12502
lthumb 14.5719 50.2415
rfemur -7.00549 13.2621 15.5696
rtibia 11.4628
rfoot -8.59136 -13.8102
rtoes -1.17147
lfemur -0.659523 -9.35586 -16.0651
ltibia 7.15625e-015
lfoot -3.12322 10.3907
ltoes -9.32278
1551
root 0.352564 16.2937 -0.19915 6.71727 -1.60557 -0.404682
lowerback 9.26887 -0.484155 -1.36728
upperback -2.7957 -0.827061 -0.106441
thorax -8.15152 -0.336738 0.790852
lowerneck -13.2316 -3.47331 -9.26898
upperneck 27.6588 -4.33202 5.888
head 11.5281 -2.22521 3.1644
rclavicle 9.19379e-016 1.05356e-014
rhumerus 29.3675 -49.6607 -26.0637
rradius 18.3212
rwrist 41.9649
rhand -4.84143 8.60134
rfingers 7.12502
rthumb 20.9458 -20.2877
lclavicle 9.19379e-016 1.05356e-014
lhumerus 28.8147 39.2486 22.7751
lradius 19.766
lwrist -10.7626
lhand -11.2416 20.7386
lfingers 7.12502
lthumb 14.7877 50.1911
rfemur -6.96874 13.2534 15.5172
rtibia 11.4158
rfoot -8.60551 -13.8279
rtoes -0.941862
lfemur -0.663406 -9.38758 -16.1193
ltibia 7.95139e-016
lfoot -3.15641 10.4293
ltoes -9.1545
1552
root 0.356635 16.2945 -0.196572 6.73628 -1.60558 -0.406065
lowerback 9.21745 -0.473482 -1.33152
upperback -2.80348 -0.808454 -0.117919
thorax -8.13109 -0.329977 0.755019
lowerneck -13.4612 -3.65599 -9.68141
upperneck 28.0461 -4.53208 6.06066
head 11.7616 -2.33898 3.27802
rclavicle 8.07563e-015 4.37326e-015
rhumerus 28.4931 -48.9383 -25.0216
rradius 18.4627
rwrist 41.0271
rhand -4.85689 8.2963
rfingers 7.12502
rthumb 20.9309 -20.5944
lclavicle 8.07563e-015 4.37326e-015
lhumerus 28.8647 39.2992 22.7793
lradius 19.7587
lwrist -10.9982
lhand -11.2233 20.7641
lfingers 7.12502
lthumb 14.8053 50.2153
rfemur -6.9717 13.2153 15.4985
rtibia 11.4045
rfoot -8.62464 -13.8221
rtoes -1.02362
lfemur -0.674198 -9.3893 -16.1311
ltibia -1.59028e-014
lfoot -3.19526 10.4354
ltoes -8.79558
